<?xml version="1.0" encoding="UTF-8"?>
<svg id="Layer_2" data-name="Layer 2" xmlns="http://www.w3.org/2000/svg" viewBox="0 0 150 100">
  <defs>
    <style>
      .cls-1 {
        fill: #fff;
      }
    </style>
  </defs>
  <g id="Layer_1-2" data-name="Layer 1">
    <g>
      <path class="cls-1" d="M64.65,45.77c-11.07,18.38-13.96,21.9-13.96,21.9,6.92,4.19,8.88,10,8.88,10,.81,1.89.11,2.57.11,2.57-1.15.27-2.19-1.22-2.19-1.22-5.07-6.49-10.61-6.22-10.61-6.22-1.96,3.24-5.19,7.43-5.19,7.43-2.31,3.24-5.65,6.49-9.11,9.6-10.96,9.87-16.61,10.14-16.61,10.14-2.19.27-4.27-1.76-4.27-1.76-2.31-2.03-2.88-3.78-2.88-3.78-1.27-1.62,0-4.87,0-4.87,3.34-8.38,11.65-14.06,11.65-14.06,7.27-6.08,18.69-8.79,18.69-8.79,7.96-10.27,15.69-22.71,15.69-22.71,5.07-7.3,9.46-15.82,12.23-22.98,2.54-6.76,1.15-9.6,1.15-9.6-1.27-3.51-7.73-1.89-7.73-1.89-17.65,5.14-28.61,14.19-28.61,14.19C4.79,43.47,6.4,59.42,6.4,59.42c-.58,2.43,5.07,2.57,5.07,2.57,13.03,1.62,34.83-20.95,34.83-20.95,1.5-1.62,2.31-.81,2.31-.81,1.04.95-.46,2.7-.46,2.7-20.42,26.36-33.33,26.49-33.33,26.49-7.04,1.08-11.19-7.43-11.19-7.43-2.31-5-2.65-6.76-2.65-6.76-.81-2.16-.92-4.33-.92-4.33C-1.44,30.77,26.13,12.93,26.13,12.93,45.5-.05,58.31.08,58.31.08c10.73-1.22,14.65,11.08,14.65,11.08,2.65,4.06,1.04,12.03,1.04,12.03-3.11,12.17-9.34,22.57-9.34,22.57ZM19.32,81.86c-5.54,5-7.61,10-7.61,10-.46,1.08.92.54.92.54,11.65-5.27,21.34-18.92,21.34-18.92-6.69,1.49-14.65,8.38-14.65,8.38Z"/>
      <path class="cls-1" d="M132.47,44.96c-16.38,8.65-38.29,9.06-38.29,9.06,8.07,18.52,21.34,21.22,21.34,21.22,6.8.95,11.07-10.68,11.07-10.68.46-1.62,1.85-1.08,1.85-1.08,1.5.68.92,2.43.92,2.43-4.15,15.14-19.03,17.03-19.03,17.03-8.77,1.89-15.57-10.54-15.57-10.54-4.15-7.3-7.15-15.95-7.15-15.95-9.46,12.84-13.5,22.44-13.5,22.44-1.73,4.6-1.73,7.16-1.73,7.16,0,1.08.23,1.35.23,1.35.23.54,0,.81,0,.81-.46.54-.92-.27-.92-.27-5.19-6.89-5.42-11.35-5.42-11.35-.35-4.6,4.04-11.62,4.04-11.62,4.73-7.98,8.19-12.57,8.19-12.57-1.04-.95-1.04-2.16-1.04-2.16-.11-1.62,1.85-2.84,1.85-2.84.81-.41,2.65-1.62,2.65-1.62,1.85-.95,3-2.57,3-2.57,15.69-21.9,16.49-23.11,16.49-23.11.11-.27-.23-.27-.23-.27-17.88,4.73-25.84,8.52-25.84,8.52-.35.27,1.38,1.08,1.38,1.08,1.04.41,1.04.81,1.04.81.11.68-1.5.68-1.5.68l-5.42.54c-2.42.68-3.58-4.06-3.58-4.06-1.27-4.33-1.38-6.49-1.38-6.49-.35-1.76,1.73-2.57,1.73-2.57,26.76-11.08,50.06-11.35,50.06-11.35,31.83-1.49,32.3,16.49,32.3,16.49.11,12.98-17.53,21.49-17.53,21.49ZM105.71,19.01s2.08,1.49,3.46,3.38c0,0,1.73,1.89.46,3.65l-13.15,18.65s45.56-4.46,50.29-21.9c0,0-3-10-41.06-3.78Z"/>
    </g>
  </g>
</svg>